<?xml version="1.0" encoding="UTF-8"?>
<svg width="83px" height="88px" viewBox="0 0 83 88" version="1.1" xmlns="http://www.w3.org/2000/svg" xmlns:xlink="http://www.w3.org/1999/xlink">
    <!-- Generator: Sketch 42 (36781) - http://www.bohemiancoding.com/sketch -->
    <title>hand</title>
    <desc>Created with Sketch.</desc>
    <defs></defs>
    <g id="*Objetivos" stroke="none" stroke-width="1" fill="none" fill-rule="evenodd">
        <g id="Resoluciones-=&gt;768" transform="translate(-434.000000, -540.000000)" fill-rule="nonzero">
            <g id="Contenidos" transform="translate(362.000000, 139.000000)">
                <g id="contedio-principal" transform="translate(63.000000, 163.000000)">
                    <g id="hand" transform="translate(9.000000, 238.000000)">
                        <g id="Capa_1">
                            <path d="M75.281,45.3810682 C74.9605373,45.0602885 74.5162635,44.8784561 74.0635519,44.8784561 C73.610668,44.8784561 73.1663942,45.0602885 72.8461037,45.3810682 C72.5258133,45.7001326 72.3415602,46.1409903 72.3415602,46.5938558 C72.3415602,47.0450058 72.5258133,47.4875789 72.8461037,47.8066433 C73.1663942,48.1257076 73.610668,48.3092554 74.0635519,48.3092554 C74.5164357,48.3092554 74.9607095,48.1257076 75.281,47.8066433 C75.6012905,47.4875789 75.7855436,47.0450058 75.7855436,46.5938558 C75.7855436,46.1409903 75.6012905,45.7001326 75.281,45.3810682 Z" id="Shape" fill="#03BBFF"></path>
                            <path d="M82.4370809,28.6073762 C81.8070041,26.8254191 80.5153382,25.4002651 78.79989,24.5941988 C75.3834585,22.989271 71.3283402,24.3401481 69.5686369,27.6699103 L62.3886203,41.2553606 L62.3886203,32.7049513 C64.3928465,31.9968343 65.8326037,30.0901676 65.8326037,27.8538012 C65.8326037,25.0161871 63.5151473,22.7076023 60.6666286,22.7076023 C57.81811,22.7076023 55.5006535,25.0161871 55.5006535,27.8538012 C55.5006535,30.0899961 56.9404108,31.9968343 58.9446369,32.7049513 L58.9446369,47.6309864 C58.9446369,47.657575 58.9473921,47.683306 58.9485975,47.7095517 L57.1484274,47.7095517 C57.5902905,46.8509942 57.8411846,45.8797349 57.8411846,44.8504951 C57.8411846,41.3823002 55.0086805,38.5606394 51.5271577,38.5606394 L49.3014834,38.5606394 L49.3014834,22.3803041 L50.6124357,21.0745419 C51.2864232,21.3961793 52.0408278,21.5768109 52.8369046,21.5768109 C55.6854232,21.5768109 58.0028797,19.2682261 58.0028797,16.4306121 C58.0028797,13.5929981 55.6854232,11.2844133 52.8369046,11.2844133 C49.9883859,11.2844133 47.6709295,13.5929981 47.6709295,16.4306121 C47.6709295,17.2246706 47.8525996,17.9772164 48.176334,18.6493099 L46.3618714,20.4568265 C46.0389979,20.7784639 45.8575,21.2148616 45.8575,21.6697856 L45.8575,38.5606394 L38.0014295,38.5606394 C35.9562199,38.5606394 34.0079585,39.181614 32.3689668,40.329731 L32.3689668,21.6701287 C32.3689668,21.2152047 32.1874689,20.778807 31.8645954,20.4571696 L30.0501328,18.649653 C30.3738672,17.9773879 30.5555373,17.2250136 30.5555373,16.4309552 C30.5555373,13.5933411 28.2380809,11.2847563 25.3895622,11.2847563 C22.5410436,11.2847563 20.2235871,13.5933411 20.2235871,16.4309552 C20.2235871,19.2685692 22.5410436,21.577154 25.3895622,21.577154 C26.1854668,21.577154 26.9398714,21.396694 27.6140311,21.074885 L28.9249834,22.3806472 L28.9249834,43.5497076 L22.0642241,50.3842027 C20.9144502,51.529575 20.2947054,53.1146043 20.3635851,54.7329123 C20.4272988,56.2290838 21.0761452,57.646347 22.155834,58.6771306 L8.73445851,72.0471267 L7.34360581,72.0471267 C3.3823361,72.0471267 0.159456432,75.2574971 0.159456432,79.2037739 L0.159456432,86.1134035 C0.159456432,87.0608187 0.930392116,87.8288031 1.88144813,87.8288031 C2.83250415,87.8288031 3.60343983,87.0608187 3.60343983,86.1134035 L3.60343983,79.2037739 C3.60343983,77.1494113 5.28134855,75.4779259 7.34360581,75.4779259 L30.8592967,75.4779259 C32.9215539,75.4779259 34.5994627,77.1494113 34.5994627,79.2037739 L34.5994627,86.1134035 C34.5994627,87.0608187 35.3703983,87.8288031 36.3214544,87.8288031 C37.2725104,87.8288031 38.0434461,87.0608187 38.0434461,86.1134035 L38.0434461,79.2037739 C38.0434461,76.242308 36.2282946,73.6952827 33.6482344,72.608577 L36.0350871,70.2308616 C36.2331162,70.3071969 36.4437158,70.3476803 36.6565539,70.3476803 C36.8115332,70.3476803 36.9675456,70.3267524 37.1202863,70.2842105 L67.9599523,61.6900585 C68.4341888,61.5578012 68.8290415,61.2296452 69.0444627,60.788616 L72.5652469,53.5805068 C72.9812801,52.7286394 72.6255166,51.7019727 71.7702033,51.2873606 C70.91489,50.8727485 69.8844502,51.2273216 69.4682448,52.0793606 L66.2861763,58.5937622 L57.8952552,60.9320234 L53.8878361,56.9399454 C50.7947946,53.8587446 46.0059357,53.257154 42.2421784,55.4773957 L31.3300892,61.913575 L24.6479004,56.2995867 C24.1325083,55.8666199 23.8328817,55.2585107 23.8042967,54.5874464 C23.7757116,53.9162105 24.0226452,53.285115 24.4994647,52.8101209 L33.4911888,43.8528187 C33.68939,43.6553762 33.8991286,43.4740585 34.1174772,43.3064639 L36.6880664,49.0463626 L34.447583,51.278269 C33.7751452,51.9481326 33.7751452,53.0343236 34.447583,53.7043587 C34.4895996,53.7462144 34.5333382,53.7854971 34.5784544,53.8220351 C35.2097365,54.3349396 36.1210145,54.3349396 36.7522967,53.8220351 C36.7974129,53.7853255 36.8409793,53.7462144 36.883168,53.7043587 L39.4568568,51.1405224 L51.5273299,51.1405224 L60.0169212,51.1405224 C60.6561245,51.1405224 61.2428071,50.7876647 61.5407116,50.2243275 L62.7516162,47.9330682 L64.8090519,49.116694 C65.0802656,49.2727953 65.3762759,49.3469006 65.6686701,49.3469006 C66.2637905,49.3469006 66.8425519,49.0393294 67.1614647,48.4892008 C67.6370788,47.6687251 67.3550166,46.6195867 66.531388,46.1457934 L64.3572012,44.8950955 L68.3677199,37.3066823 L69.9714108,38.0597427 C70.2087012,38.1710721 70.4585622,38.2239064 70.7044627,38.2239064 C71.3502095,38.2239064 71.96961,37.8600702 72.2632095,37.2396101 C72.6687386,36.382768 72.3000602,35.3605614 71.4399253,34.9564133 L69.9738216,34.2678519 L72.6160456,29.2683197 C73.5147531,27.567501 75.5861369,26.8779103 77.3308589,27.6973567 C78.2070083,28.1090526 78.8667033,28.8368967 79.1885436,29.7470877 C79.5103838,30.6572788 79.4540747,31.6362573 79.0302925,32.5039064 L75.6004295,39.5258947 C75.1842241,40.3777622 75.540332,41.4044288 76.395473,41.8190409 C77.2506141,42.2334815 78.2812261,41.8789084 78.6974315,41.0270409 L82.1272946,34.0050526 C82.9569502,32.3062924 83.0671577,30.3893333 82.4370809,28.6073762 Z M52.8370768,14.7155556 C53.786583,14.7155556 54.5590685,15.4850838 54.5590685,16.4309552 C54.5590685,17.3768265 53.786583,18.1463548 52.8370768,18.1463548 C51.8875705,18.1463548 51.1150851,17.3768265 51.1150851,16.4309552 C51.1150851,15.4850838 51.8875705,14.7155556 52.8370768,14.7155556 Z M25.3899066,18.1463548 C24.4404004,18.1463548 23.6679149,17.3768265 23.6679149,16.4309552 C23.6679149,15.4850838 24.4404004,14.7155556 25.3899066,14.7155556 C26.3394129,14.7155556 27.1118983,15.4850838 27.1118983,16.4309552 C27.1118983,17.3768265 26.3394129,18.1463548 25.3899066,18.1463548 Z M43.9972324,58.4295984 C46.4066432,57.0082183 49.4724772,57.393154 51.4529398,59.3660351 L54.0898257,61.9928265 L37.0701763,66.7357349 L34.1188548,64.2562963 L43.9972324,58.4295984 Z M33.3257054,68.077692 L29.3411888,72.0469552 L23.9530768,72.0469552 L30.4026245,65.6220975 L33.3257054,68.077692 Z M24.7891037,60.9059493 L27.7604004,63.4021988 L19.0825954,72.0469552 L13.6052842,72.0469552 L24.7891037,60.9059493 Z M51.5275021,47.7097232 L39.8610083,47.7097232 L37.3167656,42.0286628 C37.5428631,42.0048187 37.7711992,41.9916101 38.0017739,41.9916101 L45.8578444,41.9916101 L45.8578444,43.306807 C45.8578444,44.2542222 46.6287801,45.0222066 47.5798361,45.0222066 C48.5308921,45.0222066 49.3018278,44.2542222 49.3018278,43.306807 L49.3018278,41.9916101 L51.5275021,41.9916101 C53.1100124,41.9916101 54.3975456,43.2742144 54.3975456,44.8506667 C54.3975456,46.4271189 53.1100124,47.7097232 51.5275021,47.7097232 Z M60.6668008,29.5693723 C59.7172946,29.5693723 58.9448091,28.7998441 58.9448091,27.8539727 C58.9448091,26.9081014 59.7171224,26.1385731 60.6668008,26.1385731 C61.6163071,26.1385731 62.3887925,26.9081014 62.3887925,27.8539727 C62.3887925,28.7998441 61.6163071,29.5693723 60.6668008,29.5693723 Z" id="Shape" fill="#CECECE"></path>
                            <path d="M38.7219108,0 C35.8733921,0 33.5559357,2.3085848 33.5559357,5.14619883 C33.5559357,7.38239376 34.9956929,9.28923197 36.9999191,9.99734893 L36.9999191,26.4494035 C36.9999191,27.3968187 37.7708548,28.1648031 38.7219108,28.1648031 C39.6729668,28.1648031 40.4439025,27.3968187 40.4439025,26.4494035 L40.4439025,9.99734893 C42.4481286,9.28923197 43.8878859,7.3825653 43.8878859,5.14619883 C43.8878859,2.3085848 41.5704295,0 38.7219108,0 Z M38.7918237,6.8579961 C38.7684046,6.8571384 38.7455021,6.85439376 38.7219108,6.85439376 C38.6983195,6.85439376 38.675417,6.85696686 38.6519979,6.8579961 C37.7350373,6.82111501 36.9999191,6.0685692 36.9999191,5.14619883 C36.9999191,4.20032749 37.7724046,3.43079922 38.7219108,3.43079922 C39.671417,3.43079922 40.4439025,4.20032749 40.4439025,5.14619883 C40.4439025,6.0685692 39.7087842,6.82111501 38.7918237,6.8579961 Z" id="Shape" fill="#03BBFF"></path>
                            <path d="M39.9386701,31.7384951 C39.6185519,31.4194308 39.1758278,31.235883 38.721222,31.235883 C38.2683382,31.235883 37.8240643,31.4194308 37.5037739,31.7384951 C37.1834834,32.0575595 36.9992303,32.5001326 36.9992303,32.9512827 C36.9992303,33.4024327 37.1834834,33.8450058 37.5037739,34.1640702 C37.8240643,34.4831345 38.2683382,34.6666823 38.721222,34.6666823 C39.1758278,34.6666823 39.6183797,34.4831345 39.9386701,34.1640702 C40.2589606,33.8450058 40.4432137,33.4024327 40.4432137,32.9512827 C40.4432137,32.5001326 40.2589606,32.0575595 39.9386701,31.7384951 Z" id="Shape" fill="#03BBFF"></path>
                        </g>
                    </g>
                </g>
            </g>
        </g>
    </g>
</svg>