<?xml version="1.0" encoding="UTF-8"?>
<svg width="49px" height="49px" viewBox="0 0 49 49" version="1.1" xmlns="http://www.w3.org/2000/svg" xmlns:xlink="http://www.w3.org/1999/xlink">
    <!-- Generator: Sketch 42 (36781) - http://www.bohemiancoding.com/sketch -->
    <title>Page 1</title>
    <desc>Created with Sketch.</desc>
    <defs>
        <polygon id="path-1" points="43.6162341 43.4693878 6.16095494e-05 43.4693878 6.16095494e-05 0.124316327 43.6162341 0.124316327 43.6162341 43.4693878"></polygon>
        <polygon id="path-3" points="27.7760493 27.7109694 27.7760493 0.264219185 0.157119754 0.264219185 0.157119754 27.7109694 27.7760493 27.7109694"></polygon>
    </defs>
    <g id="*Objetivos" stroke="none" stroke-width="1" fill="none" fill-rule="evenodd">
        <g id="Resoluciones-=&gt;768" transform="translate(-362.000000, -139.000000)">
            <g id="Contenidos" transform="translate(362.000000, 139.000000)">
                <g id="contenido-cabecera">
                    <g id="Page-1">
                        <path d="M35.6895803,21.5908776 C35.4560801,21.0040408 34.7882326,20.716898 34.197705,20.9486327 C33.6071775,21.1806735 33.3182287,21.8443469 33.5514209,22.4308776 C34.1354794,23.8990408 34.4318213,25.4507755 34.4318213,27.0432245 C34.4318213,33.9597551 28.7692876,39.5872041 21.8086407,39.5872041 C14.8479938,39.5872041 9.184536,33.9597551 9.184536,27.0432245 C9.184536,20.1263878 14.8479938,14.4989388 21.8086407,14.4989388 C23.41665,14.4989388 24.9806084,14.7949592 26.4576973,15.3790408 C27.0473007,15.6126122 27.7157643,15.3260816 27.9508048,14.7401633 C28.1855372,14.1539388 27.8975125,13.4896531 27.3076011,13.2563878 C25.5591221,12.5648571 23.7089873,12.2143469 21.8086407,12.2143469 C13.5803774,12.2143469 6.88557566,18.8663878 6.88557566,27.0429184 C6.88557566,35.219449 13.5800693,41.8714898 21.8086407,41.8714898 C30.0365961,41.8714898 36.7307817,35.2197551 36.7307817,27.0432245 C36.7307817,25.162102 36.3802233,23.3278163 35.6895803,21.5908776" id="Fill-1" fill="#03BBFF"></path>
                        <g id="Group-5" transform="translate(0.000000, 5.246020)">
                            <mask id="mask-2" fill="white">
                                <use xlink:href="#path-1"></use>
                            </mask>
                            <g id="Clip-4"></g>
                            <path d="M42.7761879,15.8231939 C42.6018329,15.2167653 41.9657143,14.865949 41.3551637,15.0392143 C40.744613,15.2127857 40.3915903,15.8452347 40.5659453,16.4516633 C41.0643666,18.1824796 41.3169657,19.980949 41.3169657,21.7968673 C41.3169657,32.4872755 32.5656373,41.1845204 21.808918,41.1845204 C11.0512745,41.1845204 2.29933,32.4872755 2.29933,21.7968673 C2.29933,11.1064592 11.0509665,2.40921429 21.808918,2.40921429 C23.6402618,2.40921429 25.4531228,2.66145918 27.1966731,3.15890816 C27.8069157,3.33278571 28.4436504,2.98258163 28.6186215,2.37615306 C28.7935926,1.76972449 28.441186,1.13696939 27.8309434,0.963091837 C25.8810012,0.406561224 23.8549711,0.124316327 21.808918,0.124316327 C9.78304197,0.124622449 6.16095494e-05,9.84676531 6.16095494e-05,21.7968673 C6.16095494e-05,33.7469694 9.78304197,43.4694184 21.808918,43.4694184 C33.8332538,43.4694184 43.6162341,33.7472755 43.6162341,21.7968673 C43.6162341,19.7681939 43.3337543,17.7585 42.7761879,15.8231939" id="Fill-3" fill="#03BBFF" mask="url(#mask-2)"></path>
                        </g>
                        <path d="M29.8126146,26.3455102 C29.7559338,25.7170408 29.1974432,25.2554082 28.5653292,25.3092857 C27.9329072,25.3653061 27.4662149,25.9203061 27.5225876,26.5487755 C27.5370658,26.7113265 27.544767,26.877551 27.544767,27.0431633 C27.544767,30.1861224 24.9713362,32.7431633 21.8086099,32.7431633 C18.6449596,32.7431633 16.0712206,30.1858163 16.0712206,27.0431633 C16.0715287,23.8989796 18.6449596,21.3416327 21.808918,21.3416327 C21.9854293,21.3416327 22.1582441,21.3492857 22.3233577,21.3642857 C22.9557797,21.4218367 23.5151945,20.959898 23.5734155,20.3314286 C23.6316365,19.7032653 23.1664844,19.1470408 22.5340624,19.0891837 C22.299638,19.0677551 22.0556642,19.0567347 21.808918,19.0567347 C17.3776511,19.0567347 13.7725683,22.6392857 13.7725683,27.0428571 C13.7725683,31.4458163 17.3776511,35.027449 21.808918,35.027449 C26.2392607,35.027449 29.8440354,31.4458163 29.8440354,27.0428571 C29.8437274,26.8102041 29.8332538,26.575102 29.8126146,26.3455102" id="Fill-6" fill="#03BBFF"></path>
                        <g id="Group-10" transform="translate(20.947247, 0.041939)">
                            <mask id="mask-4" fill="white">
                                <use xlink:href="#path-3"></use>
                            </mask>
                            <g id="Clip-9"></g>
                            <path d="M18.7785291,15.4737245 C18.565052,15.6858673 18.2690181,15.8077041 17.9662072,15.8077041 L13.7604313,15.8077041 L20.7937774,8.81831633 L25.4751791,8.81892857 L18.7785291,15.4737245 Z M12.1348633,10.0128061 C12.1348633,9.70760204 12.2540778,9.42107143 12.4709434,9.20556122 L19.1682095,2.55137755 L19.1682095,7.20290816 L12.1348633,14.1922959 L12.1348633,10.0128061 Z M27.6000924,7.94433673 C27.2430651,7.08719388 26.4091798,6.53341837 25.4754871,6.53341837 L21.4674779,6.53341837 L21.4674779,2.55045918 C21.4674779,1.62290816 20.9099114,0.794234694 20.0476858,0.439132653 C19.1854601,0.0843367347 18.2024798,0.279030612 17.5423335,0.934744898 L10.8453754,7.59015306 C10.1941625,8.2369898 9.83590296,9.0975 9.83590296,10.0128061 L9.83590296,16.4768878 L0.49373893,25.7606633 C0.0449133616,26.2069898 0.0449133616,26.930051 0.49373893,27.3763776 C0.71799769,27.5992347 1.01218329,27.7109694 1.30636889,27.7109694 C1.60024644,27.7109694 1.89443204,27.5992347 2.11899884,27.3763776 L11.4614709,18.092602 L17.9662072,18.092602 C18.887578,18.092602 19.7531921,17.7362755 20.404097,17.0891327 L27.1016712,10.4337245 C27.7615094,9.7780102 27.9571198,8.80086735 27.6000924,7.94433673 L27.6000924,7.94433673 Z" id="Fill-8" fill="#03BBFF" mask="url(#mask-4)"></path>
                        </g>
                    </g>
                </g>
            </g>
        </g>
    </g>
</svg>