<?xml version="1.0" encoding="UTF-8"?>
<svg width="76px" height="79px" viewBox="0 0 76 79" version="1.1" xmlns="http://www.w3.org/2000/svg" xmlns:xlink="http://www.w3.org/1999/xlink">
    <!-- Generator: Sketch 42 (36781) - http://www.bohemiancoding.com/sketch -->
    <title>artificial-intelligence</title>
    <desc>Created with Sketch.</desc>
    <defs></defs>
    <g id="*Objetivos" stroke="none" stroke-width="1" fill="none" fill-rule="evenodd">
        <g id="Resoluciones-=&gt;768" transform="translate(-429.000000, -352.000000)" fill-rule="nonzero">
            <g id="Contenidos" transform="translate(362.000000, 139.000000)">
                <g id="contedio-principal" transform="translate(63.000000, 163.000000)">
                    <g id="artificial-intelligence" transform="translate(4.000000, 50.000000)">
                        <g id="Capa_1">
                            <path d="M27.1601764,15.9113392 C20.2737234,15.9113392 14.6711984,21.5760858 14.6711984,28.5390195 C14.6711984,35.5019532 20.2737234,41.1666998 27.1601764,41.1666998 C34.0466293,41.1666998 39.6491543,35.5019532 39.6491543,28.5390195 C39.6491543,21.5760858 34.0466293,15.9113392 27.1601764,15.9113392 Z M27.1601764,38.0867778 C21.9533387,38.0867778 17.7172906,33.8036842 17.7172906,28.5390195 C17.7172906,23.2743548 21.9533387,18.9912612 27.1601764,18.9912612 C32.367014,18.9912612 36.6030621,23.2743548 36.6030621,28.5390195 C36.6030621,33.8036842 32.367014,38.0867778 27.1601764,38.0867778 Z" id="Shape" fill="#C6C6C6"></path>
                            <path d="M31.4247054,26.9990585 C30.5835271,26.9990585 29.9016593,27.688499 29.9016593,28.5390195 C29.9016593,30.0674308 28.6717996,31.3109493 27.1601764,31.3109493 C25.6485531,31.3109493 24.4186934,30.0674308 24.4186934,28.5390195 C24.4186934,27.0106082 25.6485531,25.7670897 27.1601764,25.7670897 C28.0013547,25.7670897 28.6832224,25.0776491 28.6832224,24.2271287 C28.6832224,23.3766082 28.0013547,22.6871676 27.1601764,22.6871676 C23.9689379,22.6871676 21.3726012,25.3123392 21.3726012,28.5390195 C21.3726012,31.7656998 23.9689379,34.3908713 27.1601764,34.3908713 C30.3514148,34.3908713 32.9477515,31.7656998 32.9477515,28.5390195 C32.9477515,27.688499 32.2658838,26.9990585 31.4247054,26.9990585 Z" id="Shape" fill="#C6C6C6"></path>
                            <path d="M31.7061643,7.78650487 C30.2221082,7.45556725 28.6926653,7.2877115 27.160024,7.2877115 C15.5707094,7.2877115 6.14198798,16.8211481 6.14198798,28.5391735 C6.14198798,32.8496784 7.39317034,36.9522885 9.77034068,40.4777212 C8.91469339,42.0564893 9.14619639,44.081846 10.4671343,45.4174542 C11.2438878,46.2028343 12.276513,46.6352554 13.3749339,46.6352554 C14.4732024,46.6352554 15.50598,46.2026803 16.2825812,45.4174542 C17.0593347,44.6320741 17.4871583,43.5879805 17.4871583,42.4773606 C17.4871583,41.3667407 17.0593347,40.3226472 16.2827335,39.5374211 C15.5061323,38.7517329 14.473507,38.3191579 13.3750862,38.3191579 C12.948481,38.3191579 12.5320802,38.3852222 12.1363928,38.511037 C10.2053226,35.550616 9.18823246,32.1299006 9.18823246,28.5390195 C9.18823246,18.5192632 17.250477,10.3674795 27.1601764,10.3674795 C28.4724329,10.3674795 29.7811864,10.5110039 31.0500361,10.7940487 C31.8717194,10.9776121 32.6842645,10.4524854 32.8653547,9.62198441 C33.0465972,8.79148343 32.5275431,7.96960624 31.7061643,7.78650487 Z M12.6211784,41.7149259 C12.8225251,41.5113431 13.0902766,41.3990799 13.3750862,41.3990799 C13.6598958,41.3990799 13.927495,41.5111891 14.128994,41.7149259 C14.3303407,41.9185088 14.4412184,42.1892339 14.4412184,42.4770526 C14.4412184,42.7650253 14.3303407,43.0355965 14.128994,43.2393333 C13.9276473,43.4430702 13.6598958,43.5551793 13.3750862,43.5551793 C13.0902766,43.5551793 12.8226774,43.4429162 12.6211784,43.2393333 C12.2055391,42.819078 12.2055391,42.1351813 12.6211784,41.7149259 Z" id="Shape" fill="#03BBFF"></path>
                            <path d="M44.548489,16.6029357 C45.4058116,15.0238596 45.1746132,12.997117 43.8529138,11.6607388 C42.2494509,10.0397758 39.6406253,10.0397758 38.0373146,11.6607388 C36.434004,13.2820097 36.434004,15.919809 38.0373146,17.5410799 C38.8390461,18.3515614 39.8920802,18.7568791 40.9451142,18.7568791 C41.3625812,18.7568791 41.7797435,18.6920468 42.181523,18.564692 C44.113507,21.526345 45.1319679,24.9492164 45.1319679,28.5390195 C45.1319679,38.5587758 37.0697234,46.7105595 27.160024,46.7105595 C25.8462445,46.7105595 24.5358156,46.5667271 23.2652906,46.2829123 C22.4439118,46.0993489 21.6310621,46.6240136 21.4496673,47.4545146 C21.2682725,48.2850156 21.787022,49.1068928 22.6084008,49.2903021 C24.0941323,49.6221637 25.6257074,49.7904815 27.160024,49.7904815 C38.749491,49.7904815 48.1782124,40.2570448 48.1782124,28.5390195 C48.1782124,24.2317485 46.9248978,20.1288304 44.548489,16.6029357 Z M41.699022,15.3631131 C41.2835351,15.7833684 40.606998,15.7835224 40.1913587,15.3631131 C39.7757194,14.9428577 39.7757194,14.258961 40.1913587,13.8387057 C40.3991022,13.628501 40.6721844,13.5234756 40.9451142,13.5234756 C41.2181964,13.5234756 41.4911263,13.628655 41.699022,13.8387057 C42.1146613,14.258961 42.1146613,14.9428577 41.699022,15.3631131 Z" id="Shape" fill="#03BBFF"></path>
                            <path d="M72.2469098,63.9063801 C71.5895631,63.3760175 70.6311102,63.4847388 70.1064208,64.14954 L69.757491,64.5915088 L69.757491,37.9831384 C69.757491,33.6247407 66.2506774,30.0789805 61.9401523,30.0789805 L56.977002,30.0789805 L56.4457635,28.3075634 C56.4422605,27.8700604 56.4253547,27.4331735 56.4020521,26.9970565 L61.94,26.9970565 C66.2505251,26.9970565 69.7573387,23.4512963 69.7573387,19.0928986 L69.7573387,5.93885965 L70.1062685,6.38082846 C70.4070701,6.76196881 70.8502766,6.96031579 71.2977475,6.96031579 C71.6308377,6.96031579 71.9662124,6.85036257 72.2467575,6.6239883 C72.9042565,6.09347173 73.0119359,5.12452827 72.4872465,4.4597271 L69.4251623,0.579641326 C69.1374589,0.215132554 68.7018677,0.00215594542 68.2406894,0.000153996101 C67.7755511,0.000153996101 67.3408737,0.209434698 67.0516473,0.570093567 L63.9591022,4.42584795 C63.4292345,5.08649123 63.5292986,6.05620468 64.1826854,6.59180312 C64.8359198,7.12755556 65.794982,7.02653411 66.3248497,6.36573684 L66.7115511,5.88357505 L66.7115511,19.0927446 C66.7115511,21.7528733 64.5712144,23.9169805 61.9403046,23.9169805 L56.0741403,23.9169805 C55.5617876,20.7542086 54.5273347,17.6893782 53.0097715,14.8795653 C48.1436393,5.86940741 38.8232064,0.169395712 28.6859639,0.00400389863 C20.9706693,-0.123042885 13.7092425,2.80272904 8.24470541,8.23940741 C2.92820842,13.5290195 0.000152304609,20.5712612 0.000152304609,28.0691774 C0.000152304609,37.7162632 1.30311824,43.9500253 4.35682565,48.9133197 C6.72150701,52.7567544 7.97147094,57.2706881 7.97147094,61.9671072 L7.97147094,77.3060429 C7.97147094,78.1565634 8.65333868,78.8460039 9.49451703,78.8460039 C10.3356954,78.8460039 11.0175631,78.1565634 11.0175631,77.3060429 L11.0175631,61.9671072 C11.0175631,56.6950507 9.60874549,51.6185692 6.94341483,47.2863509 C4.21183166,42.8467973 3.04624449,37.0995088 3.04624449,28.0691774 C3.04624449,21.4034561 5.65126253,15.1407427 10.3812345,10.4347758 C15.2592465,5.58174269 21.7433106,2.97073879 28.6367695,3.08346394 C37.6798557,3.2309922 45.9946212,8.31671345 50.3363687,16.3559259 C52.3413066,20.0680019 53.4008898,24.2808733 53.4008898,28.5390195 C53.4008898,28.6903977 53.4229739,28.8410058 53.4663808,28.9857622 L54.3907174,32.0683021 C54.3922405,32.07323 57.9133707,43.8157407 57.9133707,43.8157407 L51.9753186,43.8157407 C51.5714068,43.8157407 51.1839439,43.9780526 50.8983727,44.2667953 C50.6128016,44.555538 50.4522725,44.9473041 50.4522725,45.3557018 L50.4522725,54.0572515 C50.4522725,55.8289766 49.7684248,57.4932125 48.5266854,58.7431988 C47.2849459,59.9931852 45.6353347,60.6766199 43.8838317,60.6696901 L36.7226212,60.6378129 C35.2149579,60.6378129 33.8206092,61.2199181 32.7692505,62.2783333 C31.7119519,63.3427544 31.1295391,64.7598265 31.1295391,66.2685263 L31.1295391,77.3063509 C31.1295391,78.1568713 31.8114068,78.8463119 32.6525852,78.8463119 C33.4937635,78.8463119 34.1756313,78.1568713 34.1756313,77.3063509 L34.1756313,66.2685263 C34.1756313,65.5850916 34.4394228,64.9432359 34.9184208,64.4609201 C35.3946774,63.9813762 36.0262846,63.7177349 36.6979479,63.7177349 C36.7017555,63.7177349 43.8704289,63.7496121 43.8704289,63.7496121 C46.466004,63.7496121 48.86602,62.7478674 50.6758557,60.9257856 C52.4958958,59.09354 53.4983647,56.6542417 53.4983647,54.0572515 L53.4983647,46.8956628 L59.9665892,46.8956628 C60.4487856,46.8956628 60.9026533,46.6646686 61.1898998,46.2732105 C61.4771463,45.8817524 61.5641122,45.3755673 61.4241443,44.9089591 L57.9007295,33.1590565 L61.9403046,33.1590565 C64.5712144,33.1590565 66.7115511,35.3231637 66.7115511,37.9832924 L66.7115511,64.6469474 L66.3248497,64.1647856 C65.794982,63.5041423 64.8359198,63.4029669 64.1826854,63.9387193 C63.5292986,64.4744717 63.4292345,65.4441852 63.9591022,66.1046745 L67.0517996,69.9604288 C67.3410261,70.3210877 67.7757034,70.5303684 68.2347495,70.5303684 C68.70202,70.5285205 69.1376112,70.3153899 69.4253146,69.9508811 L72.4877034,66.0706413 C73.0120882,65.4058402 72.9044088,64.4368967 72.2469098,63.9063801 Z" id="Shape" fill="#CECECE"></path>
                            <path d="M74.3248016,14.4851813 C73.4836232,14.4851813 72.8017555,15.1746218 72.8017555,16.0251423 L72.8017555,25.4569415 C72.8017555,26.307462 73.4836232,26.9969025 74.3248016,26.9969025 C75.16598,26.9969025 75.8478477,26.307462 75.8478477,25.4569415 L75.8478477,16.0251423 C75.8478477,15.1746218 75.16598,14.4851813 74.3248016,14.4851813 Z" id="Shape" fill="#03BBFF"></path>
                            <path d="M75.4015952,9.75734698 C75.1183086,9.47091423 74.7253627,9.30767836 74.3248016,9.30767836 C73.9242405,9.30767836 73.5312946,9.47091423 73.248008,9.75734698 C72.9647214,10.0453197 72.8017555,10.4410897 72.8017555,10.8476394 C72.8017555,11.2526491 72.9647214,11.6499591 73.248008,11.9363918 C73.5312946,12.2228246 73.9242405,12.3876004 74.3248016,12.3876004 C74.7253627,12.3876004 75.1183086,12.2228246 75.4015952,11.9363918 C75.6848818,11.6499591 75.8478477,11.2526491 75.8478477,10.8476394 C75.8478477,10.4410897 75.6848818,10.0453197 75.4015952,9.75734698 Z" id="Shape" fill="#03BBFF"></path>
                            <path d="M74.3248016,42.2446725 C73.4836232,42.2446725 72.8017555,42.9341131 72.8017555,43.7846335 L72.8017555,53.2164327 C72.8017555,54.0669532 73.4836232,54.7563938 74.3248016,54.7563938 C75.16598,54.7563938 75.8478477,54.0669532 75.8478477,53.2164327 L75.8478477,43.7846335 C75.8478477,42.9341131 75.16598,42.2446725 74.3248016,42.2446725 Z" id="Shape" fill="#03BBFF"></path>
                            <path d="M75.4015952,57.3051832 C75.1183086,57.0187505 74.7253627,56.8539747 74.3248016,56.8539747 C73.9242405,56.8539747 73.5312946,57.0187505 73.248008,57.3051832 C72.9647214,57.591616 72.8017555,57.9889259 72.8017555,58.3939357 C72.8017555,58.8004854 72.9647214,59.1962554 73.248008,59.4826881 C73.5312946,59.7706608 73.9242405,59.9338967 74.3248016,59.9338967 C74.7253627,59.9338967 75.1183086,59.7706608 75.4015952,59.4826881 C75.6848818,59.1962554 75.8478477,58.8004854 75.8478477,58.3939357 C75.8478477,57.9889259 75.6848818,57.591616 75.4015952,57.3051832 Z" id="Shape" fill="#03BBFF"></path>
                        </g>
                    </g>
                </g>
            </g>
        </g>
    </g>
</svg>